<svg width="16" height="16" viewBox="0 0 16 16" fill="none" xmlns="http://www.w3.org/2000/svg">
<path d="M9.30285 10.6439C9.63787 10.9789 9.63787 11.5187 9.30285 11.8537L6.12632 15.0302C4.78003 16.3765 2.52791 16.3145 1.10721 14.8938C-0.31349 13.473 -0.375591 11.2209 0.97072 9.87464L4.17206 6.6733C4.50709 6.33828 5.04684 6.33828 5.38188 6.6733C5.71693 7.00833 5.71691 7.54808 5.38188 7.88312L2.18054 11.0845C1.5043 11.7607 1.56632 12.9271 2.31703 13.6841C3.06774 14.441 4.24032 14.503 4.91662 13.8205L8.09314 10.644C8.42817 10.309 8.9678 10.3089 9.30285 10.6439ZM9.87363 0.971577L6.6971 4.1481C6.36208 4.48313 6.36208 5.02288 6.6971 5.35792C7.03213 5.69297 7.57188 5.69295 7.90692 5.35792L11.0834 2.1814C11.7597 1.50515 12.9261 1.56718 13.683 2.31789C14.44 3.0686 14.502 4.24117 13.8195 4.91748L10.6182 8.11882C10.2832 8.45384 10.2832 8.99359 10.6182 9.32864C10.9532 9.66368 11.493 9.66366 11.828 9.32864L15.0293 6.1273C16.3756 4.781 16.3136 2.52889 14.8929 1.10819C13.4721 -0.312513 11.2199 -0.374734 9.87363 0.971577ZM5.09653 10.8796C5.43155 11.2146 5.97131 11.2146 6.30635 10.8796L10.8478 6.33812C11.1828 6.00309 11.1828 5.46334 10.8478 5.1283C10.5128 4.79325 9.97301 4.79327 9.63797 5.1283L5.09653 9.66974C4.76151 10.0048 4.76151 10.5445 5.09653 10.8796Z" fill="#A4A49E"/>
</svg>
