<svg width="1400" height="237" viewBox="0 0 1400 237" fill="none" xmlns="http://www.w3.org/2000/svg">
<path d="M1400 236.054H1368.49V149.531C1368.49 141.95 1367.06 134.829 1364.19 128.17C1361.32 121.51 1357.43 115.722 1352.51 110.804C1347.59 105.784 1341.81 101.839 1335.15 98.9704C1328.59 95.9992 1321.52 94.4624 1313.94 94.3599H1227.42V236.054H1195.91V0H1227.42V63.0091H1313.94C1325.82 63.0091 1336.99 65.3143 1347.44 69.9247C1357.89 74.4327 1367.01 80.6311 1374.8 88.5201C1382.58 96.3066 1388.73 105.476 1393.24 116.029C1397.75 126.479 1400 137.647 1400 149.531V236.054Z" fill="white"/>
<path d="M1177.22 236.054H1074.26C1062.37 235.951 1051.21 233.646 1040.76 229.138C1030.31 224.527 1021.19 218.329 1013.4 210.543C1005.72 202.654 999.62 193.484 995.112 183.034C990.604 172.583 988.35 161.416 988.35 149.531C988.35 137.647 990.604 126.479 995.112 116.029C999.62 105.476 1005.72 96.3066 1013.4 88.5201C1021.19 80.6311 1030.31 74.4327 1040.76 69.9247C1051.21 65.3143 1062.37 63.0091 1074.26 63.0091H1177.22V94.3599H1074.26C1066.68 94.4624 1059.56 95.9992 1052.9 98.9704C1046.34 101.839 1040.6 105.784 1035.68 110.804C1030.77 115.722 1026.87 121.51 1024 128.17C1021.24 134.829 1019.85 141.95 1019.85 149.531C1019.85 157.113 1021.24 164.233 1024 170.893C1026.87 177.552 1030.77 183.392 1035.68 188.413C1040.6 193.33 1046.34 197.275 1052.9 200.246C1059.56 203.115 1066.68 204.549 1074.26 204.549H1177.22V236.054Z" fill="white"/>
<path d="M882.218 236.054H850.714V94.3599H803.534V63.0091H850.714V0H882.218V63.0091H992.407V94.3599H882.218V236.054Z" fill="white"/>
<path d="M792.991 236.054H635.622C627.938 236.054 620.767 234.619 614.107 231.75C607.448 228.882 601.608 224.989 596.588 220.071C591.567 215.05 587.623 209.211 584.754 202.551C581.885 195.789 580.451 188.617 580.451 181.036C580.451 173.352 581.885 166.18 584.754 159.521C587.623 152.861 591.567 147.021 596.588 142.001C601.608 136.981 607.448 133.036 614.107 130.168C620.767 127.299 627.938 125.864 635.622 125.864H745.658V157.369H635.622C632.344 157.369 629.27 158.035 626.402 159.367C623.533 160.596 621.023 162.287 618.871 164.438C616.72 166.59 615.029 169.1 613.8 171.969C612.57 174.837 611.956 177.86 611.956 181.036C611.956 184.314 612.57 187.388 613.8 190.257C615.029 193.023 616.72 195.482 618.871 197.633C621.023 199.785 623.533 201.475 626.402 202.705C629.27 203.934 632.344 204.549 635.622 204.549H761.487V118.027C761.487 114.851 760.821 111.828 759.489 108.96C758.26 106.091 756.569 103.581 754.418 101.429C752.266 99.2777 749.756 97.5872 746.887 96.3578C744.018 95.0259 740.996 94.3599 737.82 94.3599H611.956V63.0091H737.82C745.504 63.0091 752.676 64.4434 759.335 67.3121C765.995 70.1808 771.835 74.1253 776.855 79.1455C781.875 84.0633 785.82 89.852 788.688 96.5115C791.557 103.171 792.991 110.343 792.991 118.027V236.054Z" fill="white"/>
<path d="M591.424 94.3599H473.397C470.119 94.3599 467.045 95.0259 464.176 96.3578C461.308 97.5872 458.797 99.2777 456.646 101.429C454.494 103.581 452.804 106.091 451.574 108.96C450.345 111.828 449.73 114.851 449.73 118.027V236.054H418.226V118.027C418.226 110.343 419.66 103.171 422.529 96.5115C425.398 89.852 429.342 84.0633 434.362 79.1455C439.382 74.1253 445.222 70.1808 451.882 67.3121C458.541 64.4434 465.713 63.0091 473.397 63.0091H591.424V94.3599Z" fill="white"/>
<path d="M416.443 236.054H371.415L279.514 162.133L242.938 191.947V236.054H211.433V0H242.938V158.598L357.583 63.0091H400.307L302.412 143.23L416.443 236.054Z" fill="white"/>
<path fill-rule="evenodd" clip-rule="evenodd" d="M0.000488281 114.094C0.000488281 85.8476 22.8989 62.9492 51.1454 62.9492H188.843V94.423H51.1454C40.2814 94.423 31.4743 103.23 31.4743 114.094C31.4743 124.958 40.2814 133.765 51.1454 133.765H133.764V165.239H51.1454C22.8989 165.239 0.000488281 142.341 0.000488281 114.094Z" fill="white"/>
<path fill-rule="evenodd" clip-rule="evenodd" d="M-2.80718e-05 204.585L137.698 204.585C148.562 204.585 157.369 195.778 157.369 184.914C157.369 174.05 148.562 165.243 137.698 165.243L55.0791 165.243L55.0791 133.769L137.698 133.769C165.944 133.769 188.843 156.667 188.843 184.914C188.843 213.16 165.944 236.059 137.698 236.059L-3.05176e-05 236.059L-2.80718e-05 204.585Z" fill="white"/>
</svg>
